<?xml version="1.0" encoding="UTF-8"?>
<svg width="32px" height="22px" viewBox="0 0 32 22" version="1.1" xmlns="http://www.w3.org/2000/svg" xmlns:xlink="http://www.w3.org/1999/xlink">
    <!-- Generator: Sketch 62 (91390) - https://sketch.com -->
    <title>back</title>
    <desc>Created with Sketch.</desc>
    <g id="--------1440px" stroke="none" stroke-width="1" fill="none" fill-rule="evenodd">
        <g id="[1440px]-Detail" transform="translate(-148.000000, -81.000000)" fill="#757575">
            <g id="Icon/Arrow" transform="translate(164.000000, 92.000000) rotate(-180.000000) translate(-164.000000, -92.000000) translate(148.000000, 81.000000)">
                <path d="M10.4385652,0.330879364 C10.889688,-0.110293121 11.5999016,-0.110293121 12.0510244,0.330879364 C12.4869065,0.757147374 12.4869065,1.46660042 12.0510244,1.8918748 L3.87493154,9.88762929 L30.8549203,9.88762929 C31.4838505,9.88762929 32,10.3764961 32,10.9915541 C32,11.6066122 31.4838505,12.1113771 30.8549203,12.1113771 L3.87493154,12.1113771 L12.0510244,20.0922271 C12.4869065,20.5333996 12.4869065,21.2438463 12.0510244,21.6691206 C11.5999016,22.1102931 10.889688,22.1102931 10.4385652,21.6691206 L0.326911628,11.7804977 C-0.108970543,11.3542297 -0.108970543,10.6447767 0.326911628,10.2195023 L10.4385652,0.330879364 Z" id="Shape" transform="translate(16.000000, 11.000000) rotate(-180.000000) translate(-16.000000, -11.000000) "></path>
            </g>
        </g>
    </g>
</svg>