<?xml version="1.0" encoding="UTF-8"?>
<svg width="23px" height="27px" viewBox="0 0 23 27" version="1.1" xmlns="http://www.w3.org/2000/svg" xmlns:xlink="http://www.w3.org/1999/xlink">
    <!-- Generator: Sketch 62 (91390) - https://sketch.com -->
    <title>delete</title>
    <desc>Created with Sketch.</desc>
    <g id="--------1440px" stroke="none" stroke-width="1" fill="none" fill-rule="evenodd">
        <g id="[1440px]-Detail" transform="translate(-1114.000000, -235.000000)" fill="#F15F41">
            <g id="Component/Actions" transform="translate(1125.000000, 214.500000) rotate(-270.000000) translate(-1125.000000, -214.500000) translate(1064.000000, 188.000000)">
                <g id="Actions" transform="translate(0.000000, -0.000000)">
                    <g id="Button/Secondary-Actions/Fav" transform="translate(94.913043, 26.000000) rotate(-90.000000) translate(-94.913043, -26.000000) translate(68.913043, -0.500000)">
                        <g id="Group-8" transform="translate(0.000000, 0.586957)">
                            <g id="Icon/Check-in-Actions/Line/Delete/Active" transform="translate(15.000000, 13.000000)">
                                <path d="M13.8188158,1.90333661e-13 C15.551625,1.90333661e-13 16.3080686,0.717832576 16.35989,2.40561123 L16.3627621,2.59714654 L16.3627621,3.89884683 L19.8324558,3.89884683 C21.0299104,3.89884683 22,4.8428652 22,6.00947107 C22,7.02825488 21.2600093,7.87702827 20.2748606,8.07563174 L18.4671452,24.2401699 C18.4671452,24.2401699 18.0767553,25.8765425 16.1108546,25.9934263 L15.8858774,26 L6.11399135,26 C4.03039326,26 3.56546712,24.3636274 3.53491576,24.2467436 L3.53324854,24.2401699 L1.72653383,8.07581199 C0.740820553,7.87753958 1.3221646e-12,7.02854158 1.3221646e-12,6.00947107 C1.3221646e-12,4.89361331 0.888021876,3.98135842 2.0132236,3.90414128 L2.16806919,3.89884683 L5.63776286,3.89884683 L5.63776286,2.59714654 C5.63776286,0.998404388 6.45351206,0.0729584048 7.9928634,0.00413525541 L8.18105295,1.90333661e-13 L13.8188158,1.90333661e-13 Z M18.9147051,8.28243581 L3.08580898,8.28243581 L4.84157208,23.9860063 C4.86867572,24.0509581 4.93225702,24.1705889 5.03499312,24.2910922 C5.23245348,24.5227013 5.50416108,24.6684938 5.94188404,24.6980328 L6.11399135,24.7036011 L15.8858774,24.7036011 C16.4269694,24.7036011 16.7432517,24.551606 16.965439,24.2910279 C17.0424872,24.2006669 17.0975038,24.110803 17.1316229,24.0441368 L17.1588183,23.9860439 L18.9147051,8.28243581 Z M15.2953602,8.71472168 C15.7029282,8.71472168 16.0335809,9.10186498 16.0335809,9.57906406 L15.2953602,22.5431133 C15.2953602,23.0203124 14.9647075,23.4074557 14.5571396,23.4074557 C14.1495717,23.4074557 13.8188158,23.0203124 13.8188158,22.5431133 L14.5571396,9.57906406 C14.5571396,9.10186498 14.8873799,8.71472168 15.2953602,8.71472168 Z M10.799031,8.71472168 C11.2067318,8.71472168 11.5370798,9.10186498 11.5370798,9.57906406 L11.5370798,22.5431133 C11.5370798,23.0203124 11.2067318,23.4074557 10.799031,23.4074557 C10.3909177,23.4074557 10.0605697,23.0203124 10.0605697,22.5431133 L10.0605697,9.57906406 C10.0605697,9.10186498 10.3913303,8.71472168 10.799031,8.71472168 Z M6.10089216,8.71472168 C6.50855497,8.71472168 6.83887219,9.10138211 6.83887219,9.57906406 L7.57726473,22.5431133 C7.57726473,23.0203124 7.24694751,23.4069729 6.83887219,23.4069729 C6.43120938,23.4069729 6.10089216,23.0203124 6.10089216,22.5431133 L5.36249963,9.57906406 C5.36249963,9.10186498 5.69322935,8.71472168 6.10089216,8.71472168 Z M13.8188158,1.29639889 L8.18105295,1.29639889 C7.32956007,1.29639889 7.00320014,1.59194441 6.96956599,2.44143378 L6.96662192,2.59714654 L6.96662192,5.19524572 L2.16806919,5.19524572 C1.70360504,5.19524572 1.32885906,5.55974444 1.32885906,6.00947107 C1.32885906,6.42436468 1.64806253,6.76661484 2.0625829,6.81681372 L2.16806919,6.82315206 L19.8324558,6.82315206 C20.2968734,6.82315206 20.6711409,6.45910691 20.6711409,6.00947107 C20.6711409,5.59418393 20.3521317,5.25180293 19.9378748,5.20158625 L19.8324558,5.19524572 L15.033903,5.19524572 L15.033903,2.59714654 C15.033903,1.47178277 14.8642058,1.29639889 13.8188158,1.29639889 Z M13.3139849,2.44443213 C13.5927953,2.44443213 13.8188158,2.67045263 13.8188158,2.94926305 L13.8188158,3.38004443 C13.8188158,3.65885485 13.5927953,3.88487535 13.3139849,3.88487535 L8.68588387,3.88487535 C8.43805239,3.88503886 8.23193145,3.70647293 8.18918645,3.47097212 L8.18123693,3.38004446 L8.18139393,2.94926302 C8.18167954,2.67052453 8.40767027,2.44461615 8.68640884,2.44443213 L13.3139849,2.44443213 Z" id="icon-delete"></path>
                            </g>
                        </g>
                    </g>
                </g>
            </g>
        </g>
    </g>
</svg>