<?xml version="1.0" encoding="UTF-8"?>
<svg width="24px" height="25px" viewBox="0 0 24 25" version="1.1" xmlns="http://www.w3.org/2000/svg" xmlns:xlink="http://www.w3.org/1999/xlink">
    <!-- Generator: Sketch 62 (91390) - https://sketch.com -->
    <title>edit</title>
    <desc>Created with Sketch.</desc>
    <g id="--------1440px" stroke="none" stroke-width="1" fill="none" fill-rule="evenodd">
        <g id="[1440px]-Detail" transform="translate(-1112.000000, -169.000000)" fill="#F15F41" fill-rule="nonzero">
            <g id="Component/Actions" transform="translate(1125.000000, 214.500000) rotate(-270.000000) translate(-1125.000000, -214.500000) translate(1064.000000, 188.000000)">
                <g id="Actions" transform="translate(0.000000, -0.000000)">
                    <g id="Group-7" transform="translate(0.500000, 0.500000)">
                        <g id="edit" transform="translate(27.500000, 27.000000) rotate(360.000000) translate(-27.500000, -27.000000) translate(15.500000, 15.000000)">
                            <path d="M8.28591415,2.3386194 C8.61567164,2.3386194 8.88292907,2.60611009 8.88292907,2.93563433 C8.88292907,3.26539176 8.61567164,3.53264925 8.28591415,3.53264925 L8.28591415,3.53264925 L2.98507463,3.53264925 C1.99626866,3.53381528 1.19519588,4.33512125 1.19402985,5.32369403 L1.19402985,5.32369403 L1.19402985,20.8812967 C1.19519588,21.8701026 1.99626866,22.6714086 2.98507463,22.6723414 L2.98507463,22.6723414 L19.7367071,22.6723414 C20.7255131,22.6714086 21.5265858,21.8701026 21.5277519,20.8812967 L21.5277519,20.8812967 L21.5277519,15.5804571 C21.5277519,15.2506996 21.7950093,14.9834421 22.1247668,14.9834421 C22.4545242,14.9834421 22.7217817,15.2506996 22.7217817,15.5804571 L22.7217817,15.5804571 L22.7217817,20.8815299 C22.7199161,22.5293844 21.3845616,23.8647388 19.7367071,23.8666045 L19.7367071,23.8666045 L2.98507463,23.8666045 C1.33722018,23.8647388 0.00186567164,22.5293844 -5.5067062e-13,20.8815299 L-5.5067062e-13,20.8815299 L-5.5067062e-13,5.32369403 C0.00186567164,3.67583952 1.33722018,2.34048507 2.98507463,2.3386194 L2.98507463,2.3386194 Z M18.6858675,0.802472 C19.7350746,-0.246735045 21.4361008,-0.246735045 22.4853078,0.802472 L22.4853078,0.802472 L23.1858675,1.5030317 C24.2334421,2.55293845 24.2334421,4.25256531 23.1858675,5.302472 L23.1858675,5.302472 L12.5349814,15.9538246 C12.4619869,16.026819 12.3715019,16.0795242 12.2721549,16.1070429 L12.2721549,16.1070429 L7.21548507,17.5079291 C7.00816233,17.5652985 6.7861474,17.506763 6.63386197,17.3547108 C6.48180967,17.2024254 6.42327427,16.9804104 6.4808769,16.7730877 L6.4808769,16.7730877 L7.88152985,11.7164179 C7.90904848,11.6170709 7.96175373,11.5265858 8.03474812,11.4535914 L8.03474812,11.4535914 Z M8.77402054,12.9685168 L7.91324627,16.0755597 L11.020056,15.2147854 L8.77402054,12.9685168 Z M18.0527052,3.12430036 L9.3355877,11.8416511 L12.1466884,14.6529851 L20.8640392,5.93563433 L18.0527052,3.12430036 Z M21.6408582,1.64668842 C21.058069,1.06389922 20.1131063,1.06389922 19.5303171,1.64668842 L19.5303171,1.64668842 L18.8969217,2.27985075 L21.7084888,5.09141791 L22.3416511,4.45825558 C22.9235075,3.875 22.9235075,2.93073696 22.3416511,2.34724812 L22.3416511,2.34724812 Z"></path>
                        </g>
                    </g>
                </g>
            </g>
        </g>
    </g>
</svg>