<?xml version="1.0" encoding="UTF-8"?>
<svg width="14px" height="14px" viewBox="0 0 14 14" version="1.1" xmlns="http://www.w3.org/2000/svg" xmlns:xlink="http://www.w3.org/1999/xlink">
    <!-- Generator: Sketch 62 (91390) - https://sketch.com -->
    <title>out</title>
    <desc>Created with Sketch.</desc>
    <g id="--------1440px" stroke="none" stroke-width="1" fill="none" fill-rule="evenodd">
        <g id="[1440px]-Detail" transform="translate(-529.000000, -506.000000)" fill="#343434" fill-rule="nonzero">
            <g id="Group-4" transform="translate(196.000000, 453.000000)">
                <g id="out" transform="translate(333.000000, 53.000000)">
                    <path d="M13.1334789,0 L8.32097887,0 C7.84527465,0 7.45830282,0.387021127 7.45830282,0.862676056 C7.45830282,1.33833099 7.84527465,1.72535211 8.32097887,1.72535211 L11.050831,1.72535211 L6.4971338,6.279 C6.33411268,6.44192254 6.24439437,6.65852817 6.24439437,6.88903521 C6.24439437,7.11954225 6.33406338,7.33609859 6.49703521,7.49887324 C6.66000704,7.66199296 6.87656338,7.75176056 7.10707042,7.75176056 C7.33747887,7.75176056 7.5541338,7.66204225 7.71715493,7.49902113 L12.2708028,2.94532394 L12.2708028,5.67517606 C12.2708028,6.15083099 12.6578239,6.53785211 13.1334789,6.53785211 C13.6091338,6.53785211 13.9961549,6.15083099 13.9961549,5.67517606 L13.9961549,0.862676056 C13.9961549,0.387021127 13.6091338,0 13.1334789,0 Z" id="Path"></path>
                    <path d="M9.91520423,12.5172817 L1.47887324,12.5172817 L1.47887324,4.0809507 L7.82378169,4.0809507 L9.30265493,2.60207746 L0.73943662,2.60207746 C0.331070423,2.60207746 0,2.93314789 0,3.34151408 L0,13.2567183 C0,13.6650845 0.331070423,13.9961549 0.73943662,13.9961549 L10.6546408,13.9961549 C11.063007,13.9961549 11.3940775,13.6650845 11.3940775,13.2567183 L11.3940775,4.6935 L9.91520423,6.17237324 L9.91520423,12.5172817 Z" id="Path"></path>
                </g>
            </g>
        </g>
    </g>
</svg>