<?xml version="1.0" encoding="UTF-8"?>
<svg width="174px" height="35px" viewBox="0 0 174 35" version="1.1" xmlns="http://www.w3.org/2000/svg" xmlns:xlink="http://www.w3.org/1999/xlink">
    <!-- Generator: Sketch 62 (91390) - https://sketch.com -->
    <title>Group</title>
    <desc>Created with Sketch.</desc>
    <defs>
        <polygon id="path-1" points="5.86399787e-05 0.195018868 31.7581709 0.195018868 31.7581709 31.6979864 5.86399787e-05 31.6979864"></polygon>
    </defs>
    <g id="--------1440px" stroke="none" stroke-width="1" fill="none" fill-rule="evenodd">
        <g id="[1440px]-Feed" transform="translate(-32.000000, -48.000000)">
            <g id="Component/Sidebar-Menu" transform="translate(-36.000000, 0.000000)">
                <g id="Group-3">
                    <g id="Group" transform="translate(68.000000, 48.000000)">
                        <g id="Icon/Logos/Avantio" transform="translate(0.000000, 3.000000)">
                            <g id="Avantio-Icon">
                                <mask id="mask-2" fill="white">
                                    <use xlink:href="#path-1"></use>
                                </mask>
                                <g id="Clip-2"></g>
                                <path d="M15.0537074,20.862409 C15.0537074,22.8077873 16.5237391,23.2837058 18.1724289,23.2837058 C22.1523659,23.2837058 22.294453,20.0556168 22.294453,18.919484 L22.294453,16.9759456 C21.4356355,17.7462467 19.6427604,17.7815113 18.0654139,18.0762005 C16.4871682,18.4049277 15.0537074,18.9572017 15.0537074,20.862409 L15.0537074,20.862409 Z M22.8687966,26.2539034 C22.6889395,25.6675915 22.5459531,25.0435617 22.5102815,24.4207585 C20.8972634,26.1444299 18.5309439,26.7684597 16.2737378,26.7684597 C12.7593308,26.7684597 9.96315294,24.9702727 9.96315294,21.0835026 C9.96315294,16.7922631 13.1175461,15.7668305 16.2737378,15.3252566 C19.3909605,14.8487248 22.294453,14.9581983 22.294453,12.8322041 C22.294453,10.5945898 20.7896489,10.2643293 18.9967737,10.2643293 C17.0618115,10.2643293 15.8067089,11.0711216 15.6271516,13.1256667 L10.5374965,13.1256667 C10.8234692,8.2478086 15.0899785,6.7804954 19.2482739,6.7804954 C22.9398401,6.7804954 27.3865062,7.62439214 27.3865062,12.1713765 L27.3865062,22.0374862 C27.3865062,23.7593177 27.5657638,25.4848289 28.0318933,26.2539034 L22.8687966,26.2539034 Z M26.4827245,4.73698962 C24.6610722,2.87256658 22.5339627,1.4837554 20.1613482,0.610420395 C15.7614449,-1.01083036 10.3207687,0.651817946 5.9634316,4.95072364 C1.00687069,9.83931445 -1.11184553,16.484388 0.568019449,21.8786423 C1.08271041,23.5385307 2.01946595,25.0687069 3.35070799,26.430533 C7.57914756,30.7561171 15.7350659,32.9750258 22.3226306,31.5889745 C26.380206,30.7361849 29.3151735,28.5862721 30.5843648,25.5381858 C33.4848597,18.5720512 31.83617,10.2128124 26.4827245,4.73698962 L26.4827245,4.73698962 Z" id="Fill-1" fill="#F05F41" mask="url(#mask-2)"></path>
                            </g>
                        </g>
                        <path d="M74.957334,16.28 C76.125334,16.28 77.173334,16.552 78.101334,17.096 C79.029334,17.64 79.757334,18.396 80.285334,19.364 C80.813334,20.332 81.077334,21.44 81.077334,22.688 L81.077334,22.688 L81.053334,23.216 L70.493334,23.216 L70.517974,23.47504 C70.6583473,24.6682133 71.154134,25.6418667 72.005334,26.396 C72.917334,27.204 74.069334,27.608 75.461334,27.608 C76.245334,27.608 76.965334,27.468 77.621334,27.188 C78.277334,26.908 78.845334,26.496 79.325334,25.952 L79.325334,25.952 L80.285334,27.056 L80.0934821,27.2740741 C79.56805,27.8398025 78.9320007,28.2791111 78.185334,28.592 C77.345334,28.944 76.421334,29.12 75.413334,29.12 C74.117334,29.12 72.969334,28.844 71.969334,28.292 C70.969334,27.74 70.189334,26.976 69.629334,26 C69.069334,25.024 68.789334,23.92 68.789334,22.688 C68.789334,21.456 69.057334,20.352 69.593334,19.376 C70.129334,18.4 70.865334,17.64 71.801334,17.096 C72.737334,16.552 73.789334,16.28 74.957334,16.28 Z M117.306668,11.192 L117.306668,29 L115.674668,29 L115.674668,26.504 L115.516148,26.7524 C115.025828,27.4796 114.402668,28.0448 113.646668,28.448 C112.806668,28.896 111.858668,29.12 110.802668,29.12 C109.618668,29.12 108.546668,28.848 107.586668,28.304 C106.626668,27.76 105.874668,27 105.330668,26.024 C104.786668,25.048 104.514668,23.936 104.514668,22.688 C104.514668,21.44 104.786668,20.328 105.330668,19.352 C105.874668,18.376 106.626668,17.62 107.586668,17.084 C108.546668,16.548 109.618668,16.28 110.802668,16.28 C111.826668,16.28 112.750668,16.492 113.574668,16.916 C114.398668,17.34 115.074668,17.96 115.602668,18.776 L115.602668,18.776 L115.602668,11.192 L117.306668,11.192 Z M128.221335,16.28 C129.037335,16.28 129.853335,16.388 130.669335,16.604 C131.485335,16.82 132.157335,17.104 132.685335,17.456 L132.685335,17.456 L131.941335,18.824 L131.697785,18.6642367 C130.709382,18.0507456 129.550566,17.744 128.221335,17.744 C127.133335,17.744 126.313335,17.936 125.761335,18.32 C125.209335,18.704 124.933335,19.208 124.933335,19.832 C124.933335,20.312 125.089335,20.696 125.401335,20.984 C125.713335,21.272 126.101335,21.484 126.565335,21.62 C127.029335,21.756 127.669335,21.896 128.485335,22.04 C129.493335,22.232 130.301335,22.424 130.909335,22.616 C131.517335,22.808 132.037335,23.136 132.469335,23.6 C132.901335,24.064 133.117335,24.704 133.117335,25.52 C133.117335,26.624 132.657335,27.5 131.737335,28.148 C130.817335,28.796 129.541335,29.12 127.909335,29.12 C126.885335,29.12 125.905335,28.972 124.969335,28.676 C124.033335,28.38 123.301335,28.008 122.773335,27.56 L122.773335,27.56 L123.541335,26.216 L123.74571,26.3684375 C124.23746,26.7158125 124.833335,27.005 125.533335,27.236 C126.333335,27.5 127.165335,27.632 128.029335,27.632 C129.181335,27.632 130.033335,27.452 130.585335,27.092 C131.137335,26.732 131.413335,26.224 131.413335,25.568 C131.413335,25.104 131.261335,24.74 130.957335,24.476 C130.653335,24.212 130.269335,24.012 129.805335,23.876 C129.341335,23.74 128.725335,23.608 127.957335,23.48 C126.933335,23.288 126.109335,23.092 125.485335,22.892 C124.861335,22.692 124.329335,22.352 123.889335,21.872 C123.449335,21.392 123.229335,20.728 123.229335,19.88 C123.229335,18.824 123.669335,17.96 124.549335,17.288 C125.429335,16.616 126.653335,16.28 128.221335,16.28 Z M53.68,12.2 L53.68,13.736 L47.776,13.736 L47.776,29 L46,29 L46,13.736 L40.096,13.736 L40.096,12.2 L53.68,12.2 Z M64.642667,16.28 L64.642667,17.936 L64.234667,17.912 L63.972907,17.91744 C62.7692803,17.9682133 61.8165337,18.3744 61.114667,19.136 C60.362667,19.952 59.986667,21.096 59.986667,22.568 L59.986667,22.568 L59.986667,29 L58.282667,29 L58.282667,16.376 L59.914667,16.376 L59.914667,18.848 L60.040547,18.59984 C60.435827,17.87408 60.989867,17.3168 61.702667,16.928 C62.494667,16.496 63.474667,16.28 64.642667,16.28 L64.642667,16.28 Z M93.456001,16.28 C95.040001,16.28 96.300001,16.74 97.236001,17.66 C98.172001,18.58 98.640001,19.92 98.640001,21.68 L98.640001,21.68 L98.640001,29 L96.936001,29 L96.936001,21.848 L96.9309806,21.5716327 C96.8874704,20.3947347 96.5611439,19.4868571 95.952001,18.848 C95.296001,18.16 94.360001,17.816 93.144001,17.816 C91.784001,17.816 90.708001,18.22 89.916001,19.028 C89.124001,19.836 88.728001,20.952 88.728001,22.376 L88.728001,22.376 L88.728001,29 L87.024001,29 L87.024001,16.376 L88.656001,16.376 L88.656001,18.704 L88.8173343,18.4543704 C89.2653343,17.805679 89.8555566,17.2928889 90.588001,16.916 C91.412001,16.492 92.368001,16.28 93.456001,16.28 Z M110.946668,17.768 C110.050668,17.768 109.246668,17.972 108.534668,18.38 C107.822668,18.788 107.262668,19.368 106.854668,20.12 C106.446668,20.872 106.242668,21.728 106.242668,22.688 C106.242668,23.648 106.446668,24.504 106.854668,25.256 C107.262668,26.008 107.822668,26.588 108.534668,26.996 C109.246668,27.404 110.050668,27.608 110.946668,27.608 C111.826668,27.608 112.622668,27.404 113.334668,26.996 C114.046668,26.588 114.606668,26.008 115.014668,25.256 C115.422668,24.504 115.626668,23.648 115.626668,22.688 C115.626668,21.728 115.422668,20.872 115.014668,20.12 C114.606668,19.368 114.046668,18.788 113.334668,18.38 C112.622668,17.972 111.826668,17.768 110.946668,17.768 Z M74.957334,17.744 C73.741334,17.744 72.721334,18.132 71.897334,18.908 C71.073334,19.684 70.605334,20.696 70.493334,21.944 L70.493334,21.944 L79.445334,21.944 C79.333334,20.696 78.865334,19.684 78.041334,18.908 C77.217334,18.132 76.189334,17.744 74.957334,17.744 Z M168.306787,-2.19646523e-12 C171.459051,-2.19646523e-12 173.313325,2.35350053 173.313325,5.37739213 C173.313325,8.31570189 171.459051,10.6692024 168.306787,10.6692024 C165.154523,10.6692024 163.30025,8.31570189 163.30025,5.37739213 C163.30025,2.35350053 165.154523,-2.19646523e-12 168.306787,-2.19646523e-12 Z M149.592892,0.242481873 C152.13182,0.242481873 153.116011,1.85427315 153.116011,3.50885534 C153.116011,5.16343754 152.13182,6.77522881 149.592892,6.77522881 L147.239391,6.77522881 L147.239391,10.4267206 L145,10.4267206 L145,0.242481873 L149.592892,0.242481873 Z M159.470462,0.242481873 C161.296208,0.242481873 162.451563,1.5119458 162.451563,3.05241888 C162.451563,4.2505646 161.966599,5.1491739 160.839772,5.60561036 L160.839772,5.63413764 C161.938072,5.91941044 162.251872,6.98918341 162.32319,8.01616546 L162.34201,8.37797324 C162.372717,9.03997781 162.418281,9.9512659 162.751099,10.4267206 L160.511708,10.4267206 C160.240699,9.78485677 160.269226,8.80066564 160.155117,7.98763818 C159.998217,6.91786521 159.584571,6.4471651 158.457744,6.4471651 L156.218353,6.4471651 L156.218353,10.4267206 L153.978961,10.4267206 L153.978961,0.242481873 L159.470462,0.242481873 Z M168.306787,1.88280043 C166.295614,1.88280043 165.539641,3.59443718 165.539641,5.37739213 C165.539641,7.07476524 166.295614,8.786402 168.306787,8.786402 C170.31796,8.786402 171.073933,7.07476524 171.073933,5.37739213 C171.073933,3.59443718 170.31796,1.88280043 168.306787,1.88280043 Z M148.979555,1.98264591 L147.239391,1.98264591 L147.239391,5.03506478 L148.979555,5.03506478 C150.020801,5.03506478 150.947938,4.80684655 150.947938,3.50885534 C150.947938,2.21086414 150.020801,1.98264591 148.979555,1.98264591 Z M158.671699,1.98264591 L156.218353,1.98264591 L156.218353,4.84963747 L158.671699,4.84963747 C159.670153,4.84963747 160.212172,4.42172828 160.212172,3.39474623 C160.212172,2.41055509 159.670153,1.98264591 158.671699,1.98264591 Z" id="Combined-Shape" fill="#343434"></path>
                    </g>
                </g>
            </g>
        </g>
    </g>
</svg>