<?xml version="1.0" encoding="UTF-8"?>
<svg width="156px" height="21px" viewBox="0 0 156 21" version="1.1" xmlns="http://www.w3.org/2000/svg" xmlns:xlink="http://www.w3.org/1999/xlink">
    <!-- Generator: Sketch 62 (91390) - https://sketch.com -->
    <title>El_Mundo_logo</title>
    <desc>Created with Sketch.</desc>
    <g id="Symbols" stroke="none" stroke-width="1" fill="none" fill-rule="evenodd">
        <g id="Component/Sidebar-Menu" transform="translate(-68.000000, -437.000000)">
            <g id="Group-3">
                <g id="El_Mundo_logo" transform="translate(68.000000, 437.000000)">
                    <path d="M56.3244313,19.615684 L62.8874733,19.615684 L62.8874733,18.7618283 L61.4790936,18.7618283 C61.4282776,18.7618283 61.3025361,18.7366058 61.1274623,18.6861608 C60.9230408,18.6442657 60.7272426,18.5678781 60.5484576,18.4602711 C60.3477904,18.2577492 60.271752,18.0062661 60.271752,17.5285224 L60.271752,2.81935583 L65.9297514,19.615684 L67.7913942,19.615684 L73.5239484,2.79413333 L73.5239484,17.855673 C73.5239484,18.0823045 73.4234294,18.3081942 73.2227621,18.4602711 C73.0714272,18.5856417 72.6942025,18.7113833 72.3425712,18.7618283 L70.8833756,18.7618283 L70.8833756,19.615684 L80.1637706,19.615684 L80.1637706,18.7618283 L78.7795007,18.7618283 C77.9497547,18.7618283 77.4716401,18.2840845 77.4716401,17.5285224 L77.4716401,3.62387929 C77.4716401,3.07046804 77.5231978,2.89502332 77.7995325,2.71883676 C77.9497547,2.56861454 78.3273503,2.44213114 78.7301684,2.39242798 L80.1886222,2.39242798 L80.1886222,1.4862727 L72.6444993,1.4862727 L68.2442864,14.3107995 L63.9687023,1.4862727 L56.3492829,1.4862727 L56.3492829,2.39205706 L57.732811,2.39205706 C58.4861476,2.39205706 58.9898557,2.8694299 58.9898557,3.62387929 L58.9898557,17.0262979 L59.0150782,17.5285224 C59.0150782,18.2577492 58.4620379,18.7618283 57.7079594,18.7618283 L56.3244313,18.7618283 L56.3244313,19.615684 L56.3244313,19.615684 Z M80.5254167,2.31638957 L81.9590189,2.31638957 C82.0094639,2.31638957 82.160428,2.36646365 82.3102793,2.41727956 C82.5365399,2.46735364 82.7383199,2.54302112 82.8640615,2.64316927 C83.0650996,2.81898491 83.1400252,2.99480055 83.1400252,3.29672867 L83.1400252,14.7874305 C83.1400252,16.8501114 83.6919528,18.0311177 85.001668,18.7614573 C86.1830453,19.4903133 88.0936494,19.9176121 89.9296988,19.9176121 C92.0157476,19.9176121 94.0787995,19.3141267 95.1095835,18.4595292 C95.6381432,17.9814145 96.0650711,17.3022617 96.2657383,16.4732576 C96.4671473,15.793363 96.5684082,14.9387654 96.5684082,14.0340938 L96.5684082,3.57343429 C96.5684082,2.81935583 97.0962261,2.31638957 97.9011204,2.31638957 L99.3087583,2.31638957 L99.3087583,1.4862727 L92.6952713,1.4862727 L92.6952713,2.31638957 L94.1040219,2.31638957 C94.8076554,2.31638957 95.2857701,2.84420741 95.2857701,3.57343429 L95.2857701,14.1602063 C95.2857701,17.0266689 94.1040219,18.2076752 91.1374112,18.2076752 C89.1752494,18.2076752 87.7171665,17.5285224 87.2642743,16.347887 C87.1140521,15.9691786 87.0632362,15.4665833 87.0632362,14.3864669 L87.0632362,3.57343429 C87.0632362,2.84457833 87.5665734,2.31638957 88.3462453,2.31638957 L89.7279188,2.31638957 L89.7279188,1.4862727 L80.5254167,1.4862727 L80.5254167,2.31638957 Z M99.6670661,19.615684 L106.33174,19.615684 L106.33174,18.7618283 L104.898509,18.7618283 C104.873286,18.7618283 104.720838,18.7366058 104.521655,18.7110123 C104.293911,18.6360867 104.068021,18.5604192 103.917057,18.4599001 C103.691538,18.2573783 103.615129,18.0567111 103.615129,17.5281514 L103.615129,5.15800055 L112.843966,19.615684 L115.635132,19.615684 L115.635132,3.27187709 C115.635132,2.8946524 115.936318,2.5930952 116.4901,2.44213114 C116.641435,2.41765048 116.81688,2.36646365 116.842474,2.36646365 L118.24974,2.36646365 L118.24974,1.4862727 L111.763108,1.4862727 L111.763108,2.36646365 L113.145523,2.36646365 C113.925195,2.36646365 114.427419,2.8694299 114.427419,3.62387929 L114.427419,14.8386173 L105.878106,1.4862727 L99.6926595,1.4862727 L99.6926595,2.39205706 L101.075817,2.39205706 C101.830266,2.39205706 102.358455,2.8694299 102.358455,3.62387929 L102.358455,17.5285224 C102.358455,18.2577492 101.804673,18.7618283 101.051707,18.7618283 L99.667437,18.7618283 L99.667437,19.615684 L99.6670661,19.615684 Z" id="Shape" fill="#211915" fill-rule="nonzero"></path>
                    <path d="M118.733048,19.615684 L128.488219,19.615684 C133.543475,19.615684 137.188497,15.7180664 137.188497,10.3126628 C137.188497,7.19471715 135.755266,4.42803182 133.316844,2.84457833 C131.857277,1.91505514 130.274195,1.48664362 128.212256,1.48664362 L118.732677,1.48664362 L118.732677,2.36646365 L120.140686,2.36646365 C120.895506,2.36646365 121.397731,2.84457833 121.397731,3.62387929 L121.397731,17.5285224 C121.397731,18.0062661 121.297582,18.2840845 121.070951,18.4847517 C120.919987,18.5852708 120.517169,18.7110123 120.165908,18.8119023 L118.732677,18.8119023 L118.732677,19.615684 L118.733048,19.615684 L118.733048,19.615684 Z M125.295719,17.6542639 L125.295719,3.37239616 C125.295719,2.51779863 125.497128,2.291538 126.2768,2.291538 L128.589851,2.291538 C129.872119,2.291538 131.104312,2.9198749 131.757871,3.92543649 C132.210392,4.65503429 132.537543,5.63500247 132.739323,7.0693465 C132.864694,8.07453717 132.939248,9.55858436 132.939248,10.6394425 C132.939248,16.246997 131.481165,18.8371248 128.313146,18.8371248 L126.302022,18.8371248 C125.547202,18.8367539 125.295719,18.5604192 125.295719,17.6542639 L125.295719,17.6542639 Z M138.862084,10.5634041 C138.862084,16.1212554 142.257477,19.8671671 147.31162,19.8671671 C152.366505,19.8671671 155.786008,16.1212554 155.786008,10.5634041 C155.786008,7.94842469 155.005595,5.66022497 153.497438,3.89984307 C151.98891,2.11498052 149.977045,1.23441866 147.31162,1.23441866 C144.645825,1.23441866 142.709998,2.09012894 141.10021,3.89984307 C139.642498,5.58529931 138.862084,7.94879561 138.862084,10.5634041 Z M143.565709,5.30859369 C144.067191,3.32232209 145.3502,2.291538 147.311991,2.291538 C149.273411,2.291538 150.530456,3.32232209 151.083867,5.30859369 C151.434757,6.59086091 151.536388,7.94879561 151.536388,10.563775 C151.536388,13.153532 151.435128,14.486986 151.083867,15.7941048 C150.555308,17.7555248 149.273411,18.8122733 147.311991,18.8122733 C145.3502,18.8122733 144.093156,17.7555248 143.565709,15.7941048 C143.187742,14.5125794 143.062371,13.1791254 143.062371,10.563775 C143.062001,7.92357311 143.187742,6.61645432 143.565709,5.30859369 Z" id="Shape" fill="#211915"></path>
                    <path d="M0,19.615684 L16.2941037,19.615684 L16.796699,13.7829816 L15.8408406,13.7829816 C15.4636159,17.0262979 13.4020477,18.8119023 9.98254486,18.8119023 L7.4680845,18.8119023 C6.78930261,18.8119023 6.51222606,18.4847517 6.51222606,17.7551539 L6.51222606,10.1616988 L7.82045761,10.1616988 C9.1527989,10.1616988 10.334918,10.463256 10.8631067,10.9413706 C11.3901827,11.4435951 11.7677783,12.374231 11.7677783,13.2295704 C11.7677783,13.3801635 11.7677783,13.5570919 11.7429267,13.7329075 L12.6728209,13.7329075 L12.6728209,5.81118903 L11.7429267,5.78633745 L11.7429267,5.98737558 C11.7429267,8.17505624 10.3593986,9.35754623 7.82045761,9.35754623 L6.51222606,9.35754623 L6.51222606,3.17098711 C6.51222606,2.49294705 6.71400604,2.291538 7.34234294,2.291538 L9.85643237,2.291538 C11.8430749,2.291538 12.8742299,2.5930952 13.9550881,3.49813772 C14.7592406,4.15206804 15.3883193,5.13277805 15.5389125,6.01259808 C15.5889866,6.23885871 15.6149509,6.54004499 15.6398025,6.91838244 L16.69618,6.91838244 L16.2685103,1.4862727 L0,1.4862727 L0,2.36646365 L1.40800878,2.36646365 C2.13760658,2.36646365 2.64020192,2.81935583 2.64020192,3.59828587 L2.64020192,17.5537449 C2.64020192,18.2840845 2.13760658,18.7618283 1.3831572,18.7618283 L0,18.7618283 L0,19.615684 Z M17.0630189,2.36646365 L18.4465471,2.36646365 C19.2254771,2.36646365 19.7284433,2.84457833 19.7284433,3.62387929 L19.7284433,17.5032999 C19.7284433,18.0058952 19.6275534,18.2573783 19.4261443,18.4599001 C19.2499578,18.5852708 18.873104,18.7110123 18.5218436,18.7614573 L17.0630189,18.7614573 L17.0630189,19.615313 L32.6275248,19.615313 L33.0047495,12.4743791 L31.9739654,12.4743791 C31.3704801,16.4984801 29.4342826,18.8115314 26.56782,18.8115314 L24.5563259,18.8115314 C23.8764313,18.8115314 23.5748741,18.4843808 23.5748741,17.7299314 L23.5748741,3.62387929 C23.5748741,2.8694299 24.0785822,2.36646365 24.8330316,2.36646365 L26.2414112,2.36646365 L26.2414112,1.4862727 L17.0630189,1.4862727 L17.0630189,2.36646365 Z" id="Shape" fill="#211915" fill-rule="nonzero"></path>
                    <g id="Group" transform="translate(34.495473, 0.000000)" fill="#6887A6" fill-rule="nonzero">
                        <path d="M19.7959506,14.8597597 C20.4095241,13.5965577 20.7581658,12.2211778 20.8204291,10.8182255 L11.0901092,10.8182255 L11.0901092,14.9398782 L19.7547786,14.9398782 C19.7544077,14.9398782 19.7506985,14.9502639 19.7959506,14.8597597 L19.7959506,14.8597597 Z M9.99886529,5.34828203 L1.40689602,5.34828203 C0.663836941,6.6962721 0.2322716,8.19363273 0.143916598,9.73031989 L9.99849438,9.73031989 L9.99849438,5.34828203 L9.99886529,5.34828203 Z M11.0897383,5.34828203 L11.0897383,9.73031989 L20.8137525,9.73031989 C20.7248035,8.19402502 20.2940813,6.69695184 19.5529986,5.34828203 L11.0897383,5.34828203 L11.0897383,5.34828203 Z M9.99886529,10.8182255 L0.137981893,10.8182255 C0.202319885,12.2510608 0.564490866,13.6547734 1.20140686,14.9398782 L9.99923621,14.9398782 L9.99923621,10.8182255 L9.99886529,10.8182255 Z M9.99886529,16.0277838 L1.82640549,16.0277838 C3.59606036,18.7139797 6.58195885,20.5285158 9.99886529,20.6850436 L9.99886529,16.0277838 L9.99886529,16.0277838 Z M11.0897383,4.25963457 L18.8590091,4.25963457 C17.0871287,1.82492181 14.2826096,0.192136077 11.0897383,0.00593470508 L11.0897383,4.25963457 Z M11.0897383,16.0277838 L11.0897383,20.6772543 C14.4532324,20.4810381 17.3842348,18.680597 19.1308927,16.0277838 L11.0897383,16.0277838 Z M9.99886529,4.25963457 L9.99886529,0 C6.7522107,0.147625789 3.89576296,1.79265185 2.1008856,4.25963457 L9.99886529,4.25963457 Z" id="Shape"></path>
                    </g>
                </g>
            </g>
        </g>
    </g>
</svg>