<?xml version="1.0" encoding="UTF-8"?>
<svg width="100px" height="24px" viewBox="0 0 100 24" version="1.1" xmlns="http://www.w3.org/2000/svg" xmlns:xlink="http://www.w3.org/1999/xlink">
    <!-- Generator: Sketch 62 (91390) - https://sketch.com -->
    <title>El_Pais_logo_2007</title>
    <desc>Created with Sketch.</desc>
    <g id="Symbols" stroke="none" stroke-width="1" fill="none" fill-rule="evenodd">
        <g id="Component/Sidebar-Menu" transform="translate(-68.000000, -338.000000)" fill-rule="nonzero">
            <g id="Group-3">
                <g id="El_Pais_logo_2007" transform="translate(68.000000, 338.000000)">
                    <path d="M0,22.5318049 L0,20.4446064 L1.48091704,20.4446064 C2.38536973,20.4446064 2.88232176,20.1663133 2.88232176,18.4766764 L2.88232176,7.5238537 C2.88232176,6.32122979 2.5742115,5.94354625 1.18274583,5.94354625 L0,5.94354625 L0,3.87622582 L17.5125895,3.87622582 L17.5125895,11.3006891 L15.5446594,11.3006891 C15.1570368,7.47415849 14.8290485,5.95348529 11.280811,5.95348529 L6.60946197,5.95348529 L6.60946197,11.8175192 L8.01086668,11.8175192 C9.61105221,11.8175192 10.3167241,10.9627617 10.3167241,8.68672144 L10.3167241,8.32891598 L12.2846541,8.32891598 L12.2846541,17.7213093 L10.3167241,17.7213093 L10.3167241,17.0454545 C10.3167241,14.7694143 9.60111317,13.8947787 8.01086668,13.8947787 L6.60946197,13.8947787 L6.60946197,20.4446064 L11.9169096,20.4446064 C14.3519746,20.4446064 15.3061224,18.8444209 15.5545985,14.6501458 L17.5225285,14.6501458 L17.5225285,22.5318049 L0,22.5318049 L0,22.5318049 Z" id="Path" fill="#212020"></path>
                    <path d="M18.9438113,22.5318049 L18.9438113,20.4446064 L20.6533263,20.4446064 C21.3987543,20.4446064 21.8957063,20.1663133 21.8957063,19.2121654 L21.8957063,7.16604824 C21.8957063,6.32122979 21.557779,5.95348529 20.4943016,5.95348529 L18.9438113,5.95348529 L18.9438113,3.87622582 L28.6641929,3.87622582 L28.6641929,5.95348529 L27.1832759,5.95348529 C26.0204082,5.95348529 25.6129075,6.23177843 25.6129075,7.22568248 L25.6129075,20.4744235 L29.9363901,20.4744235 C32.6696263,20.4744235 33.325603,18.864299 33.574079,14.5109992 L35.542009,14.5109992 L35.542009,22.5318049 L18.9438113,22.5318049 Z" id="Path" fill="#212020"></path>
                    <path d="M40.7500663,22.5318049 L40.7500663,20.4446064 L42.4595812,20.4446064 C43.0658627,20.4446064 43.5926319,20.2259475 43.5926319,19.4904585 L43.5926319,6.91757222 C43.5926319,6.18208322 43.0559237,5.95348529 42.4595812,5.95348529 L40.7500663,5.95348529 L40.7500663,3.87622582 L51.1562417,3.87622582 C55.1318579,3.87622582 57.4078982,5.81433872 57.4078982,8.9948317 C57.4078982,12.4536178 55.0225285,14.0935595 51.464352,14.0935595 L47.309833,14.0935595 L47.309833,19.4904585 C47.309833,20.2259475 47.9757487,20.4446064 48.5820302,20.4446064 L50.2816061,20.4446064 L50.2816061,22.5318049 C50.2816061,22.5318049 40.7500663,22.5318049 40.7500663,22.5318049 Z M47.309833,12.006361 L49.7250199,12.006361 C52.20978,12.006361 53.5416114,11.1913597 53.5416114,9.02464882 C53.5416114,6.85793798 52.4880732,5.95348529 49.7250199,5.95348529 L47.309833,5.95348529 L47.309833,12.006361 Z" id="Shape" fill="#212020"></path>
                    <path d="M54.4460641,22.5318049 L62.7252849,22.5318049 L62.7252849,20.4446064 L60.6579645,20.4446064 C60.1610125,20.4446064 59.803207,20.335277 59.803207,19.9476544 C59.803207,19.6991784 59.8628412,19.5302147 59.9125364,19.351312 L60.787172,16.5385635 L66.8102306,16.5385635 L67.6848662,19.351312 C67.7445004,19.5202756 67.7941956,19.7687517 67.7941956,20.0271667 C67.7941956,20.3054598 67.5854757,20.4446064 66.9692552,20.4446064 L64.8721177,20.4446064 L64.8721177,22.5318049 L82.831964,22.5318049 L82.831964,20.4446064 L81.2914127,20.4446064 C80.38696,20.4446064 79.9893984,19.9774715 79.9893984,19.0730188 L79.9893984,7.30519481 C79.9893984,6.23177843 80.8143387,5.95348529 81.6690962,5.95348529 L82.831964,5.95348529 L82.831964,3.87622582 L73.4495097,3.87622582 L73.4495097,5.95348529 L74.9304267,5.95348529 C75.9640869,5.95348529 76.2821362,6.5200106 76.2821362,7.22568248 L76.2821362,19.4407633 C76.2821362,20.1663133 75.8547575,20.4446064 74.7714021,20.4446064 L74.1054864,20.4446064 C72.7040816,20.4446064 71.7996289,20.2557646 71.322555,18.9338723 L66.0151073,3.87622582 L62.2979062,3.87622582 L57.2289955,18.9338723 C56.7817387,20.2557646 55.8474689,20.4446064 54.4361251,20.4446064 C54.4460641,20.4446064 54.4460641,22.5318049 54.4460641,22.5318049 Z M66.0349854,14.451365 L61.5624172,14.451365 L63.6794328,7.66300027 L63.7390671,7.66300027 L66.0349854,14.451365 Z" id="Shape" fill="#212020"></path>
                    <path d="M96.8758283,3.87622582 L98.4163795,3.87622582 L98.4163795,10.9627617 L96.5080838,10.9627617 C95.8719852,7.90153724 94.2022263,5.70500928 91.0515505,5.70500928 C88.5866684,5.70500928 87.5728863,6.38086403 87.5728863,8.24940366 C87.5728863,12.4635569 99.4102836,9.312881 99.4102836,17.164723 C99.4102836,21.6372913 96.1204612,23.1082693 92.40326,23.1082693 C90.4154519,23.1082693 88.4276438,22.2038166 86.8870925,20.8918632 L86.3106281,22.551683 L84.4818447,22.551683 L84.4818447,14.9085608 L86.4398357,14.9085608 C86.8075802,18.6853962 88.9941691,20.7129605 92.7511264,20.7129605 C95.086801,20.7129605 96.1999735,19.5600318 96.1999735,18.2083223 C96.1999735,13.3978267 84.3625762,17.0255765 84.3625762,8.97495362 C84.3625762,5.00927644 87.7319109,3.31963954 90.942221,3.31963954 C92.9598463,3.31963954 94.6594222,4.30360456 95.9813146,5.28756957 L96.8758283,3.87622582 Z" id="Path" fill="#212020"></path>
                    <polygon id="Path" fill="#016CA2" points="82.8915982 0 82.8915982 2.34561357 73.2109727 2.34561357"></polygon>
                </g>
            </g>
        </g>
    </g>
</svg>