<?xml version="1.0" encoding="UTF-8"?>
<svg width="21px" height="21px" viewBox="0 0 21 21" version="1.1" xmlns="http://www.w3.org/2000/svg" xmlns:xlink="http://www.w3.org/1999/xlink">
    <!-- Generator: Sketch 62 (91390) - https://sketch.com -->
    <title>Shape</title>
    <desc>Created with Sketch.</desc>
    <g id="--------1440px" stroke="none" stroke-width="1" fill="none" fill-rule="evenodd">
        <g id="[1440px]-Detail" transform="translate(-32.000000, -437.000000)" fill="#6887A6" fill-rule="nonzero">
            <g id="Components/Sidebar/Desktop/Dropdown" transform="translate(-36.000000, 0.000000)">
                <path d="M87.6579687,451.85976 C88.2715422,450.596558 88.6201839,449.221178 88.6824472,447.818226 L78.9521273,447.818226 L78.9521273,451.939878 L87.6167967,451.939878 C87.6164258,451.939878 87.6127166,451.950264 87.6579687,451.85976 L87.6579687,451.85976 Z M77.8608834,442.348282 L69.2689141,442.348282 C68.525855,443.696272 68.0942897,445.193633 68.0059347,446.73032 L77.8605125,446.73032 L77.8605125,442.348282 L77.8608834,442.348282 Z M78.9517564,442.348282 L78.9517564,446.73032 L88.6757706,446.73032 C88.5868216,445.194025 88.1560995,443.696952 87.4150167,442.348282 L78.9517564,442.348282 L78.9517564,442.348282 Z M77.8608834,447.818226 L68,447.818226 C68.064338,449.251061 68.426509,450.654773 69.063425,451.939878 L77.8612543,451.939878 L77.8612543,447.818226 L77.8608834,447.818226 Z M77.8608834,453.027784 L69.6884236,453.027784 C71.4580785,455.71398 74.443977,457.528516 77.8608834,457.685044 L77.8608834,453.027784 L77.8608834,453.027784 Z M78.9517564,441.259635 L86.7210272,441.259635 C84.9491468,438.824922 82.1446277,437.192136 78.9517564,437.005935 L78.9517564,441.259635 Z M78.9517564,453.027784 L78.9517564,457.677254 C82.3152505,457.481038 85.2462529,455.680597 86.9929108,453.027784 L78.9517564,453.027784 Z M77.8608834,441.259635 L77.8608834,437 C74.6142288,437.147626 71.7577811,438.792652 69.9629037,441.259635 L77.8608834,441.259635 Z" id="Shape"></path>
            </g>
        </g>
    </g>
</svg>