<?xml version="1.0" encoding="UTF-8"?>
<svg width="18px" height="20px" viewBox="0 0 18 20" version="1.1" xmlns="http://www.w3.org/2000/svg" xmlns:xlink="http://www.w3.org/1999/xlink">
    <!-- Generator: Sketch 62 (91390) - https://sketch.com -->
    <title>Path</title>
    <desc>Created with Sketch.</desc>
    <g id="--------1440px" stroke="none" stroke-width="1" fill="none" fill-rule="evenodd">
        <g id="[1440px]-Detail" transform="translate(-32.000000, -341.000000)" fill="#212020" fill-rule="nonzero">
            <g id="Components/Sidebar/Desktop/Dropdown" transform="translate(-36.000000, 0.000000)">
                <path d="M68,360.531805 L68,358.444606 L69.480917,358.444606 C70.3853697,358.444606 70.8823218,358.166313 70.8823218,356.476676 L70.8823218,345.523854 C70.8823218,344.32123 70.5742115,343.943546 69.1827458,343.943546 L68,343.943546 L68,341.876226 L85.5125895,341.876226 L85.5125895,349.300689 L83.5446594,349.300689 C83.1570368,345.474158 82.8290485,343.953485 79.280811,343.953485 L74.609462,343.953485 L74.609462,349.817519 L76.0108667,349.817519 C77.6110522,349.817519 78.3167241,348.962762 78.3167241,346.686721 L78.3167241,346.328916 L80.2846541,346.328916 L80.2846541,355.721309 L78.3167241,355.721309 L78.3167241,355.045455 C78.3167241,352.769414 77.6011132,351.894779 76.0108667,351.894779 L74.609462,351.894779 L74.609462,358.444606 L79.9169096,358.444606 C82.3519746,358.444606 83.3061224,356.844421 83.5545985,352.650146 L85.5225285,352.650146 L85.5225285,360.531805 L68,360.531805 L68,360.531805 Z" id="Path"></path>
            </g>
        </g>
    </g>
</svg>