<?xml version="1.0" encoding="UTF-8"?>
<svg width="32px" height="32px" viewBox="0 0 32 32" version="1.1" xmlns="http://www.w3.org/2000/svg" xmlns:xlink="http://www.w3.org/1999/xlink">
    <!-- Generator: Sketch 62 (91390) - https://sketch.com -->
    <title>Isotipo Avantio</title>
    <desc>Created with Sketch.</desc>
    <defs>
        <polygon id="path-1" points="5.86399787e-05 0.195018868 31.7581709 0.195018868 31.7581709 31.6979864 5.86399787e-05 31.6979864"></polygon>
    </defs>
    <g id="--------1440px" stroke="none" stroke-width="1" fill="none" fill-rule="evenodd">
        <g id="[1440px]-Detail" transform="translate(-22.000000, -51.000000)">
            <g id="Components/Sidebar/Desktop/Dropdown" transform="translate(-36.000000, 0.000000)">
                <g id="Icon/Logos/Avantio" transform="translate(58.000000, 51.000000)">
                    <g id="Avantio-Icon">
                        <mask id="mask-2" fill="white">
                            <use xlink:href="#path-1"></use>
                        </mask>
                        <g id="Clip-2"></g>
                        <path d="M15.0537074,20.862409 C15.0537074,22.8077873 16.5237391,23.2837058 18.1724289,23.2837058 C22.1523659,23.2837058 22.294453,20.0556168 22.294453,18.919484 L22.294453,16.9759456 C21.4356355,17.7462467 19.6427604,17.7815113 18.0654139,18.0762005 C16.4871682,18.4049277 15.0537074,18.9572017 15.0537074,20.862409 L15.0537074,20.862409 Z M22.8687966,26.2539034 C22.6889395,25.6675915 22.5459531,25.0435617 22.5102815,24.4207585 C20.8972634,26.1444299 18.5309439,26.7684597 16.2737378,26.7684597 C12.7593308,26.7684597 9.96315294,24.9702727 9.96315294,21.0835026 C9.96315294,16.7922631 13.1175461,15.7668305 16.2737378,15.3252566 C19.3909605,14.8487248 22.294453,14.9581983 22.294453,12.8322041 C22.294453,10.5945898 20.7896489,10.2643293 18.9967737,10.2643293 C17.0618115,10.2643293 15.8067089,11.0711216 15.6271516,13.1256667 L10.5374965,13.1256667 C10.8234692,8.2478086 15.0899785,6.7804954 19.2482739,6.7804954 C22.9398401,6.7804954 27.3865062,7.62439214 27.3865062,12.1713765 L27.3865062,22.0374862 C27.3865062,23.7593177 27.5657638,25.4848289 28.0318933,26.2539034 L22.8687966,26.2539034 Z M26.4827245,4.73698962 C24.6610722,2.87256658 22.5339627,1.4837554 20.1613482,0.610420395 C15.7614449,-1.01083036 10.3207687,0.651817946 5.9634316,4.95072364 C1.00687069,9.83931445 -1.11184553,16.484388 0.568019449,21.8786423 C1.08271041,23.5385307 2.01946595,25.0687069 3.35070799,26.430533 C7.57914756,30.7561171 15.7350659,32.9750258 22.3226306,31.5889745 C26.380206,30.7361849 29.3151735,28.5862721 30.5843648,25.5381858 C33.4848597,18.5720512 31.83617,10.2128124 26.4827245,4.73698962 L26.4827245,4.73698962 Z" id="Fill-1" fill="#F05F41" mask="url(#mask-2)"></path>
                    </g>
                </g>
            </g>
        </g>
    </g>
</svg>